<?xml version="1.0" encoding="UTF-8"?>

<svg width="45mm" height="18mm" viewBox="0 0 45 18" xmlns="http://www.w3.org/2000/svg">

	<g>
        <path style="fill:none;stroke-width:0.280000;stroke-linecap:round;stroke-linejoin:round;stroke-opacity:1;stroke:#000000;" d="M 27.249605,17.703511 C 27.246558,17.669148 27.245035,17.637902 27.245035,17.609774 C 27.245035,17.587881 27.248081,17.561323 27.254174,17.530101 L 27.714435,17.438791 C 27.788064,17.402286 27.847866,17.358166 27.893842,17.306431 C 27.909072,17.251650 27.916687,17.196869 27.916687,17.142088 C 27.916687,16.673378 27.904503,15.780103 27.880135,14.462262 L 27.866428,12.791342 C 27.860336,12.526574 27.843582,12.359185 27.816168,12.289173 C 27.800938,12.252669 27.778093,12.223755 27.747632,12.202433 C 27.671481,12.144606 27.519179,12.095916 27.290726,12.056366 L 27.318140,11.917009 C 27.647113,11.776415 27.867189,11.667151 27.978370,11.589215 C 28.089550,11.511279 28.195400,11.402014 28.295920,11.261420 L 28.350748,11.247642 C 28.372071,11.247642 28.402531,11.256780 28.442130,11.275056 C 28.439083,11.466957 28.437560,11.593367 28.437560,11.654288 L 28.442130,12.156885 C 28.667537,11.986307 28.902082,11.859134 29.145765,11.775368 C 29.389448,11.691602 29.642270,11.649719 29.904229,11.649719 C 30.373319,11.649719 30.769305,11.814967 31.092185,12.145462 C 31.415065,12.475958 31.576506,12.901642 31.576506,13.422515 C 31.576506,13.809362 31.485755,14.156611 31.304254,14.464261 C 31.122753,14.771911 30.872608,15.001887 30.553821,15.154189 C 30.235034,15.306491 29.913962,15.382642 29.590606,15.382642 C 29.316034,15.382642 29.001816,15.308014 28.647951,15.158758 C 28.590029,15.134390 28.538175,15.113068 28.492389,15.094791 C 28.486297,15.338950 28.483251,15.555648 28.483251,15.744883 C 28.483251,16.687918 28.509261,17.215883 28.561282,17.328777 C 28.588839,17.389840 28.674557,17.426464 28.818435,17.438648 C 29.063355,17.456972 29.225628,17.492025 29.305254,17.543808 C 29.351135,17.571222 29.381738,17.626051 29.397063,17.708294 L 28.943727,17.717432 L 28.531655,17.708294 L 27.844868,17.712863 L 27.249605,17.703511 "/>
        <path style="fill:none;stroke-width:0.280000;stroke-linecap:round;stroke-linejoin:round;stroke-opacity:1;stroke:#000000;" d="M 28.446699,12.472150 C 28.440606,12.514795 28.437560,12.554393 28.437560,12.590946 C 28.437560,13.678382 28.448222,14.287590 28.469544,14.418570 C 28.512188,14.659207 28.597478,14.828263 28.725411,14.925736 C 28.923404,15.081084 29.206686,15.158758 29.575257,15.158758 C 29.956012,15.158758 30.277369,15.027017 30.539329,14.763534 C 30.801288,14.500052 30.932268,14.158134 30.932268,13.737780 C 30.932268,13.232137 30.793673,12.831583 30.516483,12.536117 C 30.239294,12.240651 29.873769,12.092918 29.419909,12.092918 C 29.228008,12.092918 29.051338,12.124140 28.889898,12.186584 C 28.728457,12.249028 28.580724,12.344216 28.446699,12.472150 "/>
        <path style="fill:none;stroke-width:0.280000;stroke-linecap:round;stroke-linejoin:round;stroke-opacity:1;stroke:#000000;" d="M 37.772153,14.692714 C 37.790429,14.732312 37.799567,14.761250 37.799567,14.779526 C 37.799567,14.825217 37.763014,14.905937 37.689909,15.021686 C 37.595482,15.173988 37.490394,15.285169 37.374644,15.355228 C 37.301539,15.400918 37.201020,15.423764 37.073086,15.423764 C 36.853771,15.423764 36.689285,15.356751 36.579628,15.222725 C 36.512615,15.143528 36.465401,15.001887 36.437987,14.797802 L 35.926252,15.154189 C 35.746535,15.257754 35.609464,15.323244 35.515036,15.350659 C 35.362734,15.390257 35.179972,15.410057 34.966749,15.410057 C 34.811401,15.410057 34.688798,15.363604 34.598940,15.270700 C 34.509081,15.177796 34.464152,15.058239 34.464152,14.912029 C 34.464152,14.701852 34.593145,14.450554 34.851130,14.158134 C 35.109116,13.865714 35.459446,13.626600 35.902121,13.440791 C 36.213532,13.309811 36.404337,13.226045 36.474539,13.189493 C 36.480631,13.088973 36.483677,12.979316 36.483677,12.860520 C 36.483677,12.473673 36.429444,12.211714 36.320976,12.074642 C 36.212508,11.937570 36.057446,11.869034 35.855788,11.869034 C 35.644945,11.869034 35.447857,11.951277 35.264523,12.115763 C 35.151487,12.219329 35.065936,12.414275 35.007871,12.700603 C 34.989594,12.779800 34.954565,12.865089 34.902782,12.956471 C 34.771802,13.041760 34.666714,13.084404 34.587517,13.084404 C 34.520504,13.084404 34.459583,13.064605 34.404754,13.025007 C 34.374294,13.003684 34.359064,12.979316 34.359064,12.951902 C 34.359064,12.872704 34.443591,12.693750 34.612647,12.415037 C 34.781702,12.136324 34.994925,11.927670 35.252315,11.789075 C 35.509706,11.650481 35.734351,11.581183 35.926252,11.581183 C 36.188211,11.581183 36.383158,11.604790 36.511092,11.652004 C 36.639025,11.699217 36.751729,11.782222 36.849202,11.901017 C 36.946676,12.019813 37.006073,12.149270 37.027396,12.289388 C 37.039580,12.356401 37.045672,12.595515 37.045672,13.006730 L 37.031965,13.733211 L 37.036534,14.263222 C 37.036534,14.333281 37.035011,14.392679 37.031965,14.441416 C 37.028919,14.529751 37.027396,14.595241 37.027396,14.637885 C 37.027396,14.738404 37.056333,14.819125 37.114208,14.880045 C 37.172083,14.940966 37.240618,14.971427 37.319816,14.971427 C 37.435565,14.971427 37.534561,14.913552 37.616805,14.797802 L 37.671633,14.724697 C 37.686863,14.715559 37.720370,14.704898 37.772153,14.692714 "/>
        <path style="fill:none;stroke-width:0.280000;stroke-linecap:round;stroke-linejoin:round;stroke-opacity:1;stroke:#000000;" d="M 36.433346,14.560211 C 36.454716,14.173364 36.465401,13.900743 36.465401,13.742349 C 36.465401,13.660106 36.460832,13.548926 36.451694,13.408808 C 36.246895,13.481913 36.029889,13.593093 35.800674,13.742349 C 35.571459,13.891605 35.389601,14.063706 35.255100,14.258653 C 35.157293,14.398771 35.108390,14.531274 35.108390,14.656161 C 35.108390,14.774957 35.148893,14.873953 35.229898,14.953150 C 35.310904,15.032347 35.412518,15.071946 35.534740,15.071946 C 35.629501,15.071946 35.744132,15.038440 35.878634,14.971427 C 36.055875,14.883091 36.240779,14.746020 36.433346,14.560211 "/>
        <path style="fill:none;stroke-width:0.280000;stroke-linecap:round;stroke-linejoin:round;stroke-opacity:1;stroke:#000000;" d="M 41.509645,14.477968 L 41.514214,14.774957 C 41.276623,15.027778 41.042077,15.204449 40.810578,15.304968 C 40.579079,15.405487 40.306459,15.455747 39.992716,15.455747 C 39.651560,15.455747 39.343910,15.366650 39.069766,15.188457 C 38.795622,15.010264 38.584684,14.758204 38.436951,14.432277 C 38.289218,14.106351 38.215352,13.786517 38.215352,13.472775 C 38.215352,13.128572 38.304448,12.803407 38.482642,12.497280 C 38.660835,12.191153 38.896903,11.962700 39.190846,11.811921 C 39.484789,11.661142 39.854122,11.585752 40.298843,11.585752 C 40.725289,11.585752 41.049693,11.658857 41.272054,11.805067 C 41.396941,11.890356 41.459385,12.000014 41.459385,12.134040 C 41.459385,12.231513 41.427402,12.312233 41.363435,12.376200 C 41.299468,12.440167 41.217225,12.472150 41.116705,12.472150 C 40.964403,12.472150 40.796871,12.377723 40.614109,12.188868 C 40.501405,12.073119 40.399363,11.993160 40.307982,11.948993 C 40.216600,11.904825 40.114558,11.882741 40.001854,11.882741 C 39.730757,11.882741 39.505350,11.993922 39.325633,12.216283 C 39.075858,12.533071 38.950970,12.930579 38.950970,13.408808 C 38.950970,13.902266 39.078904,14.295206 39.334772,14.587625 C 39.590639,14.880045 39.889151,15.026255 40.230308,15.026255 C 40.467899,15.026255 40.678837,14.987418 40.863123,14.909744 C 41.047408,14.832070 41.262915,14.688145 41.509645,14.477968 "/>
        <path style="fill:none;stroke-width:0.280000;stroke-linecap:round;stroke-linejoin:round;stroke-opacity:1;stroke:#000000;" d="M 45.375071,12.901642 L 43.542877,12.914992 L 43.195628,12.914635 C 43.055510,12.914635 42.912347,12.920965 42.766137,12.933625 C 42.738722,13.025007 42.725015,13.087450 42.725015,13.120957 L 42.729584,13.166647 L 42.729584,13.212338 L 42.725015,13.436222 C 42.725015,13.622031 42.783651,13.849722 42.900924,14.119297 C 43.018196,14.388871 43.185729,14.594479 43.403521,14.736120 C 43.621313,14.877761 43.893172,14.953150 44.219098,14.962288 C 44.392722,14.953150 44.531317,14.931828 44.634883,14.898322 C 44.738448,14.864815 44.884658,14.787141 45.073512,14.665300 L 45.402485,14.395725 L 45.429899,14.578487 C 45.429899,14.599810 45.428376,14.622655 45.425330,14.647023 C 45.288258,14.820648 45.114634,14.972950 44.904457,15.103929 C 44.694280,15.234909 44.481058,15.330859 44.264789,15.391780 C 44.161223,15.419195 43.990645,15.432902 43.753054,15.432902 C 43.536785,15.432902 43.323562,15.388734 43.113385,15.300399 C 42.802689,15.166373 42.558244,14.950866 42.380051,14.653877 C 42.201857,14.356888 42.112761,13.996694 42.112761,13.573294 C 42.112761,13.439268 42.137891,13.267167 42.188150,13.056990 C 42.238410,12.846813 42.329030,12.622929 42.460009,12.385338 C 42.548345,12.223898 42.656479,12.091395 42.784413,11.987830 C 42.967175,11.841620 43.127092,11.739577 43.264164,11.681703 C 43.462157,11.599459 43.692133,11.558338 43.954092,11.558338 C 44.237374,11.558338 44.468873,11.610121 44.648590,11.713686 C 44.892273,11.850758 45.074274,12.027428 45.194593,12.243697 C 45.314911,12.459966 45.375071,12.657959 45.375071,12.837675 L 45.375071,12.901642 "/>
        <path style="fill:none;stroke-width:0.280000;stroke-linecap:round;stroke-linejoin:round;stroke-opacity:1;stroke:#000000;" d="M 42.825534,12.737156 L 43.040280,12.737156 C 43.195628,12.737156 43.658627,12.712787 44.429275,12.664051 C 44.551116,12.657959 44.625744,12.645774 44.653159,12.627498 C 44.707988,12.569623 44.735402,12.517841 44.735402,12.472150 C 44.735402,12.377723 44.704942,12.270350 44.644021,12.150031 C 44.583100,12.029713 44.489434,11.936808 44.363023,11.871319 C 44.236613,11.805829 44.089641,11.773084 43.922109,11.773084 C 43.568768,11.773084 43.285487,11.905587 43.072264,12.170592 C 42.907777,12.371631 42.825534,12.560485 42.825534,12.737156 "/>
        <path style="fill:none;stroke-width:0.280000;stroke-linecap:round;stroke-linejoin:round;stroke-opacity:1;stroke:#000000;" d="M 0.429899,8.310606 C 0.555802,8.225317 0.783240,8.164460 1.112212,8.128034 C 1.368080,8.115913 1.520382,8.093671 1.569119,8.061307 C 1.601610,8.037065 1.625978,8.006732 1.642224,7.970306 C 1.703144,7.820733 1.747820,7.414309 1.776249,6.751033 C 1.813500,5.885958 1.873532,4.734586 1.956346,3.296918 C 2.022598,2.200407 2.055724,1.516095 2.055724,1.243982 L 2.055724,1.085588 C 1.762225,1.024604 1.297513,0.959558 0.661589,0.890451 C 0.620848,0.829530 0.600478,0.782824 0.600478,0.750333 C 0.600478,0.730026 0.614661,0.693473 0.643027,0.640675 C 0.711944,0.616307 0.764646,0.604123 0.801135,0.604123 C 0.833500,0.604123 0.904415,0.612246 1.013882,0.628491 C 1.212446,0.656921 1.485987,0.671136 1.834505,0.671136 C 1.948033,0.671136 2.142567,0.661839 2.418107,0.643246 C 2.612673,0.629348 2.722108,0.622399 2.746413,0.622399 C 2.811269,0.622399 2.886246,0.634583 2.971344,0.658952 C 3.013101,0.700137 3.044418,0.739259 3.065296,0.776319 L 3.320306,1.348880 L 5.044651,5.162428 L 5.763517,6.763218 C 6.325956,5.646336 6.762967,4.653327 7.074552,3.784190 C 7.094795,3.719207 7.119100,3.660317 7.147466,3.607519 C 7.183828,3.538476 7.218208,3.461309 7.250603,3.376020 C 7.282999,3.290731 7.414503,2.965820 7.645113,2.401287 C 7.738208,2.173849 7.813090,1.978903 7.869759,1.816447 C 8.100369,1.166625 8.235918,0.795008 8.276405,0.701596 C 8.353762,0.669105 8.420965,0.652860 8.478015,0.652860 C 8.543124,0.652860 8.626573,0.658952 8.728362,0.671136 C 8.956434,0.683320 9.327004,0.689412 9.840071,0.689412 C 10.157685,0.689412 10.418311,0.685351 10.621952,0.677228 C 10.630075,0.721903 10.634136,0.754394 10.634136,0.774701 C 10.634136,0.803131 10.628044,0.841714 10.615860,0.890451 C 10.485895,0.959494 10.329532,0.998078 10.146770,1.006200 C 9.785306,1.026507 9.555838,1.054937 9.458364,1.091489 C 9.360891,1.128042 9.298955,1.174748 9.272556,1.231607 C 9.246157,1.288467 9.222804,1.475291 9.202497,1.792079 L 9.208589,2.072315 L 9.202497,2.364735 C 9.202497,2.973943 9.218742,3.997412 9.251234,5.435144 L 9.245141,6.629192 L 9.251234,7.396794 C 9.251234,7.697337 9.265448,7.875022 9.293878,7.929851 C 9.322308,7.984680 9.403536,8.036463 9.537561,8.085199 C 9.756876,8.158304 10.114278,8.233440 10.609768,8.310606 C 10.638197,8.330913 10.652412,8.357312 10.652412,8.389803 C 10.652412,8.426356 10.650382,8.466970 10.646320,8.511645 L 10.365704,8.511645 C 10.125638,8.511645 9.865249,8.504538 9.584537,8.490323 C 9.303825,8.476108 9.153284,8.469000 9.132914,8.469000 C 8.298933,8.469000 7.745633,8.478297 7.473012,8.496891 C 7.306241,8.510788 7.200487,8.517737 7.155748,8.517737 C 7.127255,8.517737 7.096731,8.509614 7.064176,8.493369 L 7.064176,8.414172 C 7.064176,8.377619 7.070268,8.339036 7.082452,8.298422 C 7.216478,8.241499 7.399241,8.202884 7.630740,8.182577 C 7.886607,8.113470 8.073431,8.040302 8.191211,7.963072 C 8.227764,7.808549 8.246040,7.493474 8.246040,7.017848 L 8.227764,5.786105 C 8.227764,5.651952 8.234871,5.401955 8.249086,5.036112 C 8.263301,4.670270 8.270408,4.074737 8.270408,3.249514 C 8.270408,2.594996 8.254163,2.099031 8.221672,1.761618 C 8.152945,1.903767 8.017460,2.212433 7.815216,2.687615 L 7.724215,2.919114 L 7.712031,2.955666 L 6.814210,5.087895 L 6.492663,5.910326 L 6.074023,6.909427 C 5.892022,7.368364 5.736324,7.774503 5.606931,8.127844 C 5.550326,8.290299 5.503810,8.418233 5.467384,8.511645 L 5.325268,8.505553 C 4.865823,7.165295 4.317932,5.790515 3.681595,4.381214 C 3.045258,2.971912 2.598998,2.041854 2.342813,1.591040 C 2.309370,1.765680 2.271739,2.273353 2.229919,3.114061 C 2.175598,4.137530 2.148437,5.264565 2.148437,6.495166 C 2.148437,6.879665 2.176867,7.312742 2.233727,7.794398 C 2.249972,7.931977 2.308862,8.034162 2.410397,8.100953 C 2.511932,8.167744 2.773891,8.205169 3.196275,8.213228 C 3.358731,8.213228 3.513064,8.225381 3.659274,8.249685 C 3.687703,8.312193 3.701918,8.358010 3.701918,8.387138 C 3.701918,8.407953 3.691797,8.443363 3.671553,8.493369 L 1.780057,8.426356 C 1.642224,8.426356 1.427319,8.435367 1.135343,8.453389 C 0.973205,8.464241 0.740088,8.471475 0.435991,8.475092 L 0.429899,8.310606 "/>
        <path style="fill:none;stroke-width:0.280000;stroke-linecap:round;stroke-linejoin:round;stroke-opacity:1;stroke:#000000;" d="M 15.696656,7.628293 C 15.721024,7.681091 15.733208,7.719674 15.733208,7.744043 C 15.733208,7.804963 15.684472,7.912590 15.586998,8.066923 C 15.461095,8.269992 15.320978,8.418233 15.166645,8.511645 C 15.069172,8.572566 14.935146,8.603026 14.764567,8.603026 C 14.472148,8.603026 14.252833,8.513676 14.106623,8.334975 C 14.017272,8.229379 13.954321,8.040524 13.917768,7.768411 L 13.235455,8.243593 C 12.995833,8.381681 12.813071,8.469000 12.687168,8.505553 C 12.484098,8.558351 12.240415,8.584750 11.956118,8.584750 C 11.748987,8.584750 11.585516,8.522814 11.465705,8.398941 C 11.345894,8.275069 11.285989,8.115660 11.285989,7.920713 C 11.285989,7.640477 11.457979,7.305413 11.801960,6.915520 C 12.145940,6.525626 12.613047,6.206807 13.203281,5.959063 C 13.618495,5.784423 13.872902,5.672735 13.966505,5.623998 C 13.974628,5.489972 13.978689,5.343762 13.978689,5.185368 C 13.978689,4.669572 13.906377,4.320293 13.761754,4.137530 C 13.617130,3.954768 13.410380,3.863387 13.141504,3.863387 C 12.860379,3.863387 12.597595,3.973044 12.353150,4.192359 C 12.202435,4.330446 12.088367,4.590375 12.010947,4.972146 C 11.986578,5.077742 11.939872,5.191460 11.870829,5.313302 C 11.696189,5.427021 11.556071,5.483880 11.450475,5.483880 C 11.361124,5.483880 11.279897,5.457481 11.206792,5.404683 C 11.166178,5.376254 11.145871,5.343762 11.145871,5.307210 C 11.145871,5.201614 11.258574,4.963007 11.483981,4.591390 C 11.709388,4.219773 11.993686,3.941568 12.336873,3.756775 C 12.680060,3.571982 12.979588,3.479586 13.235455,3.479586 C 13.584734,3.479586 13.844663,3.511061 14.015241,3.574013 C 14.185820,3.636964 14.336091,3.747637 14.466055,3.906031 C 14.596020,4.064425 14.675217,4.237034 14.703647,4.423858 C 14.719892,4.513209 14.728015,4.832028 14.728015,5.380315 L 14.709739,6.348956 L 14.715831,7.055637 C 14.715831,7.149049 14.713800,7.228246 14.709739,7.293229 C 14.705677,7.411009 14.703647,7.498329 14.703647,7.555188 C 14.703647,7.689214 14.742230,7.796841 14.819396,7.878068 C 14.896563,7.959296 14.987944,7.999910 15.093540,7.999910 C 15.247873,7.999910 15.379868,7.922744 15.489525,7.768411 L 15.562630,7.670938 C 15.582937,7.658754 15.627612,7.644539 15.696656,7.628293 "/>
        <path style="fill:none;stroke-width:0.280000;stroke-linecap:round;stroke-linejoin:round;stroke-opacity:1;stroke:#000000;" d="M 13.911581,7.451623 C 13.940074,6.935827 13.954321,6.572332 13.954321,6.361140 C 13.954321,6.251483 13.948228,6.103242 13.936044,5.916418 C 13.662979,6.013891 13.373637,6.162132 13.068018,6.361140 C 12.762398,6.560148 12.519921,6.789617 12.340585,7.049545 C 12.210177,7.236369 12.144972,7.413040 12.144972,7.579556 C 12.144972,7.737951 12.198976,7.869946 12.306984,7.975542 C 12.414991,8.081138 12.550476,8.133936 12.713440,8.133936 C 12.839787,8.133936 12.992628,8.089261 13.171964,7.999910 C 13.408286,7.882130 13.654825,7.699367 13.911581,7.451623 "/>
        <path style="fill:none;stroke-width:0.280000;stroke-linecap:round;stroke-linejoin:round;stroke-opacity:1;stroke:#000000;" d="M 16.062181,8.475092 L 16.037813,8.395895 C 16.037813,8.367466 16.056089,8.324821 16.092641,8.267962 L 16.452074,8.194952 L 16.957717,8.103761 C 16.998331,8.083454 17.026760,8.055056 17.043006,8.018567 C 17.067374,7.965896 17.079558,7.809786 17.079558,7.550238 C 17.079558,6.171651 17.071436,5.375920 17.055190,5.163047 C 17.038945,4.950173 17.002392,4.815354 16.945533,4.758589 C 16.888673,4.701825 16.742463,4.657229 16.506903,4.624802 C 16.368816,4.604495 16.259158,4.578127 16.177930,4.545700 L 16.202299,4.359891 C 16.628744,4.184807 16.915072,4.034155 17.061282,3.907935 C 17.264352,3.724665 17.436961,3.484408 17.579109,3.187166 L 17.786240,3.193258 C 17.810608,3.396327 17.822792,3.847141 17.822792,4.545700 L 17.816700,4.649265 C 17.816700,4.673634 17.820762,4.712217 17.828885,4.765015 C 17.983217,4.484779 18.176133,4.226881 18.407632,3.991320 L 18.547750,3.851202 C 18.604610,3.786220 18.659438,3.735453 18.712236,3.698900 C 18.996534,3.528322 19.207726,3.443033 19.345813,3.443033 C 19.524514,3.443033 19.670724,3.502938 19.784443,3.622749 C 19.898162,3.742560 19.955021,3.889786 19.955021,4.064425 C 19.955021,4.202513 19.914407,4.310139 19.833179,4.387306 C 19.723522,4.488840 19.597619,4.539608 19.455470,4.539608 C 19.390488,4.539608 19.262554,4.505086 19.071669,4.436042 C 18.880784,4.366999 18.754881,4.332477 18.693960,4.332477 C 18.580241,4.332477 18.501044,4.350753 18.456369,4.387306 C 18.342650,4.476656 18.204563,4.659419 18.042107,4.935593 C 17.916204,5.142724 17.853253,5.333609 17.853253,5.508249 L 17.883713,6.515632 L 17.895897,7.724624 C 17.908082,7.862965 17.924327,7.952506 17.944634,7.993247 C 17.960880,8.021740 18.001493,8.056325 18.066476,8.097003 C 18.505106,8.133619 18.765034,8.160081 18.846262,8.176390 C 18.903122,8.180451 18.945766,8.184513 18.974196,8.188574 C 19.148836,8.192636 19.270677,8.217067 19.339721,8.261870 C 19.376273,8.282177 19.394550,8.312637 19.394550,8.353251 C 19.394550,8.377619 19.378304,8.410110 19.345813,8.450724 L 18.669592,8.438540 L 18.413724,8.432448 L 18.042107,8.438540 L 17.420715,8.438540 L 17.085651,8.456816 L 16.062181,8.475092 "/>
        <path style="fill:none;stroke-width:0.280000;stroke-linecap:round;stroke-linejoin:round;stroke-opacity:1;stroke:#000000;" d="M 24.962712,3.309007 L 25.188119,3.309007 L 25.200303,3.528322 L 25.188119,4.832028 L 25.194211,6.708389 C 25.194211,7.037361 25.192181,7.266830 25.188119,7.396794 L 25.182027,7.561280 L 25.188119,7.804963 L 25.182027,8.200949 L 25.200303,8.907630 L 25.188119,9.717877 L 25.194211,10.885880 C 25.194211,10.958985 25.192181,11.080826 25.188119,11.251405 C 25.184058,11.304203 25.182027,11.348878 25.182027,11.385430 C 25.182027,11.482904 25.214740,11.572254 25.280167,11.653482 C 25.304662,11.665666 25.329189,11.679881 25.353748,11.696127 C 25.398740,11.724556 25.458059,11.747909 25.531703,11.766186 C 25.605347,11.784462 25.670821,11.801723 25.728125,11.817968 C 25.818110,11.846398 25.901972,11.866705 25.979709,11.878889 C 26.016515,11.919503 26.034919,11.958086 26.034919,11.994639 L 26.028826,12.055559 C 25.927038,12.059621 25.863928,12.061652 25.839496,12.061652 L 24.111629,12.031191 C 23.875498,12.031191 23.617028,12.037283 23.336222,12.049467 C 23.319913,12.008853 23.311758,11.978393 23.311758,11.958086 C 23.311758,11.937779 23.319881,11.909349 23.336126,11.872797 C 23.888475,11.763330 24.178864,11.698443 24.207294,11.678136 C 24.276338,11.641647 24.323044,11.570700 24.347412,11.465294 C 24.408333,11.242298 24.438793,10.333050 24.438793,9.562719 C 24.438793,8.942342 24.434732,8.386852 24.426609,7.896250 C 24.361627,7.924679 24.233693,7.983569 24.042808,8.072920 C 23.482336,8.328851 23.003093,8.456816 22.605077,8.456816 C 22.243613,8.456816 21.868950,8.363293 21.481087,8.176247 C 21.093225,7.989201 20.788621,7.704555 20.567275,7.322309 C 20.345930,6.940062 20.235257,6.535431 20.235257,6.108414 C 20.235257,5.396783 20.490109,4.795967 20.999813,4.305967 C 21.509517,3.815967 22.121771,3.570967 22.836576,3.570967 C 23.165548,3.570967 23.537165,3.647974 23.951427,3.801990 C 24.247908,3.915518 24.467223,3.972283 24.609371,3.972283 C 24.662169,3.972283 24.704814,3.949977 24.737305,3.905365 C 24.794165,3.836385 24.869300,3.637599 24.962712,3.309007 "/>
        <path style="fill:none;stroke-width:0.280000;stroke-linecap:round;stroke-linejoin:round;stroke-opacity:1;stroke:#000000;" d="M 23.908782,7.829141 C 24.164649,7.731541 24.325074,7.646125 24.390056,7.572893 L 24.432701,6.364852 C 24.432701,5.575801 24.388026,5.050105 24.298675,4.787765 C 24.209325,4.525425 24.040777,4.300700 23.793032,4.113590 C 23.545288,3.926481 23.246776,3.832926 22.897496,3.832926 C 22.312657,3.832926 21.863873,4.074928 21.551146,4.558931 C 21.311525,4.925027 21.191714,5.368385 21.191714,5.889004 C 21.191714,6.251038 21.273957,6.584580 21.438443,6.889628 C 21.602929,7.194677 21.854735,7.443801 22.193861,7.637003 C 22.532987,7.830204 22.854852,7.926805 23.159456,7.926805 C 23.431569,7.926805 23.681344,7.894251 23.908782,7.829141 "/>
        <path style="fill:none;stroke-width:0.280000;stroke-linecap:round;stroke-linejoin:round;stroke-opacity:1;stroke:#000000;" d="M 30.744098,5.240197 L 28.301173,5.257997 L 27.838175,5.257521 C 27.651351,5.257521 27.460466,5.265962 27.265519,5.282842 C 27.228967,5.404683 27.210690,5.487942 27.210690,5.532617 L 27.216782,5.593538 L 27.216782,5.654459 L 27.210690,5.952971 C 27.210690,6.200715 27.288872,6.504304 27.445235,6.863737 C 27.601599,7.223170 27.824975,7.497313 28.115364,7.686168 C 28.405754,7.875022 28.768233,7.975542 29.202801,7.987726 C 29.434300,7.975542 29.619093,7.947112 29.757180,7.902437 C 29.895268,7.857762 30.090214,7.754196 30.342020,7.591741 L 30.780650,7.232308 L 30.817203,7.475991 C 30.817203,7.504421 30.815172,7.534881 30.811111,7.567372 C 30.628348,7.798871 30.396849,8.001941 30.116613,8.176580 C 29.836377,8.351220 29.552080,8.479154 29.263722,8.560382 C 29.125635,8.596934 28.898197,8.615210 28.581409,8.615210 C 28.293050,8.615210 28.008753,8.556320 27.728517,8.438540 C 27.314256,8.259839 26.988329,7.972496 26.750738,7.576510 C 26.513147,7.180525 26.394351,6.700266 26.394351,6.135733 C 26.394351,5.957032 26.427858,5.727564 26.494871,5.447328 C 26.561884,5.167092 26.682710,4.868580 26.857350,4.551792 C 26.975130,4.336538 27.119309,4.159868 27.289887,4.021781 C 27.533571,3.826834 27.746793,3.690778 27.929556,3.613611 C 28.193546,3.503954 28.500181,3.449125 28.849460,3.449125 C 29.227169,3.449125 29.535835,3.518169 29.775457,3.656256 C 30.100368,3.839018 30.343036,4.074579 30.503460,4.362937 C 30.663885,4.651296 30.744098,4.915286 30.744098,5.154908 L 30.744098,5.240197 "/>
        <path style="fill:none;stroke-width:0.280000;stroke-linecap:round;stroke-linejoin:round;stroke-opacity:1;stroke:#000000;" d="M 27.344716,5.020882 L 27.631044,5.020882 C 27.838175,5.020882 28.455506,4.988391 29.483037,4.923409 C 29.645492,4.915286 29.744996,4.899041 29.781549,4.874672 C 29.854654,4.797506 29.891206,4.728462 29.891206,4.667541 C 29.891206,4.541638 29.850592,4.398474 29.769365,4.238050 C 29.688137,4.077625 29.563249,3.953753 29.394702,3.866433 C 29.226154,3.779113 29.030192,3.735453 28.806816,3.735453 C 28.335695,3.735453 27.957986,3.912123 27.673688,4.265464 C 27.454374,4.533516 27.344716,4.785322 27.344716,5.020882 "/>
        <path style="fill:none;stroke-width:0.280000;stroke-linecap:round;stroke-linejoin:round;stroke-opacity:1;stroke:#000000;" d="M 32.858050,2.437840 L 33.046905,2.443932 L 33.071273,3.022679 L 33.059089,3.772005 C 33.136255,3.776067 33.184992,3.778098 33.205299,3.778098 C 33.310895,3.778098 33.511933,3.769975 33.808415,3.753729 C 33.999300,3.741545 34.182062,3.735453 34.356702,3.735453 C 34.437930,3.735453 34.559771,3.737484 34.722227,3.741545 C 34.730350,3.822773 34.734411,3.887755 34.734411,3.936492 C 34.734411,3.989290 34.722227,4.072548 34.697859,4.186267 L 34.594293,4.186267 L 33.650021,4.216727 L 33.180930,4.228912 L 33.071273,4.241096 C 33.038782,4.342630 33.022536,4.460411 33.022536,4.594436 L 33.040812,5.508249 L 33.028628,7.116558 C 33.028628,7.538943 33.083457,7.819178 33.193114,7.957266 C 33.298711,8.099414 33.457105,8.170488 33.668297,8.170488 C 33.773893,8.170488 33.972901,8.137997 34.265321,8.073015 C 34.354671,8.052708 34.474482,7.985695 34.624754,7.871976 L 34.679582,7.871976 C 34.716135,7.871976 34.745580,7.883145 34.767918,7.905483 C 34.790255,7.927820 34.801424,7.957266 34.801424,7.993818 L 34.795332,8.036463 C 34.620692,8.227348 34.420669,8.366450 34.195262,8.453770 C 33.969855,8.541090 33.670328,8.584750 33.296680,8.584750 C 33.032690,8.584750 32.814390,8.523829 32.641781,8.401987 C 32.469172,8.280146 32.358499,8.135967 32.309763,7.969450 C 32.261026,7.802933 32.236658,7.439439 32.236658,6.878967 L 32.261026,5.508249 L 32.254934,4.850304 L 32.254934,4.606621 C 32.254934,4.492902 32.250873,4.379183 32.242750,4.265464 L 32.139184,4.259372 L 31.639634,4.277648 L 31.590897,4.283740 C 31.546222,4.283740 31.512715,4.273587 31.490378,4.253280 C 31.468040,4.232973 31.456871,4.208605 31.456871,4.180175 C 31.456871,4.131438 31.472101,4.091840 31.502562,4.061379 C 31.533022,4.030919 31.625419,3.983198 31.779752,3.918215 C 31.885348,3.873540 32.008205,3.789266 32.148322,3.665394 C 32.288440,3.541522 32.407236,3.404450 32.504709,3.254178 C 32.553446,3.172951 32.622490,3.018618 32.711840,2.791180 C 32.776822,2.624663 32.825559,2.506883 32.858050,2.437840 "/>
        <path style="fill:none;stroke-width:0.280000;stroke-linecap:round;stroke-linejoin:round;stroke-opacity:1;stroke:#000000;" d="M 32.152207,9.653039 L 32.152207,9.552520 C 32.237496,9.525106 32.331924,9.496168 32.435489,9.465708 C 32.588553,9.416971 32.815126,9.342343 33.115208,9.241824 L 33.331025,9.241824 C 33.331025,9.388129 33.331025,9.471966 33.331025,9.493336 C 33.331025,11.996040 33.323410,13.488219 33.308180,13.969874 C 33.299042,14.253394 33.294473,14.404292 33.294473,14.422568 C 33.294473,14.763963 33.308180,14.954483 33.335594,14.994129 C 33.372147,15.049005 33.484089,15.087117 33.671420,15.108463 C 33.858752,15.129809 33.969171,15.151143 34.002677,15.172465 C 34.027045,15.184649 34.039230,15.205972 34.039230,15.236432 C 34.039230,15.269939 34.032376,15.293545 34.018669,15.307253 C 34.004962,15.320960 33.979832,15.327813 33.943279,15.327813 C 33.921957,15.327813 33.762040,15.322602 33.463528,15.312179 L 32.864981,15.291261 L 32.097379,15.327813 C 32.048642,15.330859 32.012089,15.321483 31.987721,15.299685 C 31.969445,15.284074 31.960307,15.262205 31.960307,15.234076 C 31.960307,15.202854 31.970206,15.180211 31.990006,15.166147 C 32.009805,15.152083 32.119462,15.128298 32.318978,15.094791 C 32.518494,15.061285 32.632720,15.033109 32.661658,15.010264 C 32.690595,14.987418 32.709633,14.936397 32.718771,14.857200 C 32.730955,14.747543 32.737047,14.438369 32.737047,13.929681 L 32.732478,12.878797 L 32.746185,11.791360 L 32.741616,10.703923 L 32.755323,10.169343 C 32.755323,10.062732 32.738570,9.985819 32.705064,9.938606 C 32.671557,9.891392 32.599975,9.844940 32.490318,9.799249 C 32.325832,9.732236 32.213128,9.683500 32.152207,9.653039 "/>
    </g>
</svg>
