<svg xmlns="http://www.w3.org/2000/svg" version="1.1" width="1920" height="947" viewBox="-52.1875057220459 179.25 399.37503814697266 152.8125"><pattern patternUnits="userSpaceOnUse" width="1024" height="1024" id="pat-Zebrawood7" patternTransform="rotate(157.5) scale(0.016640626589457194 0.016640626589457194)"><image href="veneers/Zebrawood.jpg"/></pattern><pattern patternUnits="userSpaceOnUse" width="1024" height="1024" id="pat-Zebrawood6" patternTransform="rotate(135) scale(0.016640626589457194 0.016640626589457194)"><image href="veneers/Zebrawood.jpg"/></pattern><pattern patternUnits="userSpaceOnUse" width="1024" height="1024" id="pat-Zebrawood5" patternTransform="rotate(112.5) scale(0.016640626589457194 0.016640626589457194)"><image href="veneers/Zebrawood.jpg"/></pattern><pattern patternUnits="userSpaceOnUse" width="1024" height="1024" id="pat-Zebrawood4" patternTransform="rotate(90) scale(0.016640626589457194 0.016640626589457194)"><image href="veneers/Zebrawood.jpg"/></pattern><pattern patternUnits="userSpaceOnUse" width="1024" height="1024" id="pat-Zebrawood3" patternTransform="rotate(67.5) scale(0.016640626589457194 0.016640626589457194)"><image href="veneers/Zebrawood.jpg"/></pattern><pattern patternUnits="userSpaceOnUse" width="1024" height="1024" id="pat-Zebrawood2" patternTransform="rotate(45) scale(0.016640626589457194 0.016640626589457194)"><image href="veneers/Zebrawood.jpg"/></pattern><pattern patternUnits="userSpaceOnUse" width="1024" height="1024" id="pat-Zebrawood1" patternTransform="rotate(22.5) scale(0.016640626589457194 0.016640626589457194)"><image href="veneers/Zebrawood.jpg"/></pattern><pattern patternUnits="userSpaceOnUse" width="1024" height="1024" id="pat-Zebrawood0" patternTransform="rotate(0) scale(0.016640626589457194 0.016640626589457194)"><image href="veneers/Zebrawood.jpg"/></pattern><pattern patternUnits="userSpaceOnUse" width="1024" height="1024" id="pat-Wenge7" patternTransform="rotate(157.5) scale(0.016640626589457194 0.016640626589457194)"><image href="veneers/Wenge.jpg"/></pattern><pattern patternUnits="userSpaceOnUse" width="1024" height="1024" id="pat-Wenge6" patternTransform="rotate(135) scale(0.016640626589457194 0.016640626589457194)"><image href="veneers/Wenge.jpg"/></pattern><pattern patternUnits="userSpaceOnUse" width="1024" height="1024" id="pat-Wenge5" patternTransform="rotate(112.5) scale(0.016640626589457194 0.016640626589457194)"><image href="veneers/Wenge.jpg"/></pattern><pattern patternUnits="userSpaceOnUse" width="1024" height="1024" id="pat-Wenge4" patternTransform="rotate(90) scale(0.016640626589457194 0.016640626589457194)"><image href="veneers/Wenge.jpg"/></pattern><pattern patternUnits="userSpaceOnUse" width="1024" height="1024" id="pat-Wenge3" patternTransform="rotate(67.5) scale(0.016640626589457194 0.016640626589457194)"><image href="veneers/Wenge.jpg"/></pattern><pattern patternUnits="userSpaceOnUse" width="1024" height="1024" id="pat-Wenge2" patternTransform="rotate(45) scale(0.016640626589457194 0.016640626589457194)"><image href="veneers/Wenge.jpg"/></pattern><pattern patternUnits="userSpaceOnUse" width="1024" height="1024" id="pat-Wenge1" patternTransform="rotate(22.5) scale(0.016640626589457194 0.016640626589457194)"><image href="veneers/Wenge.jpg"/></pattern><pattern patternUnits="userSpaceOnUse" width="1024" height="1024" id="pat-Wenge0" patternTransform="rotate(0) scale(0.016640626589457194 0.016640626589457194)"><image href="veneers/Wenge.jpg"/></pattern><pattern patternUnits="userSpaceOnUse" width="1024" height="1024" id="pat-Walnut7" patternTransform="rotate(157.5) scale(0.016640626589457194 0.016640626589457194)"><image href="veneers/Walnut.jpg"/></pattern><pattern patternUnits="userSpaceOnUse" width="1024" height="1024" id="pat-Walnut6" patternTransform="rotate(135) scale(0.016640626589457194 0.016640626589457194)"><image href="veneers/Walnut.jpg"/></pattern><pattern patternUnits="userSpaceOnUse" width="1024" height="1024" id="pat-Walnut5" patternTransform="rotate(112.5) scale(0.016640626589457194 0.016640626589457194)"><image href="veneers/Walnut.jpg"/></pattern><pattern patternUnits="userSpaceOnUse" width="1024" height="1024" id="pat-Walnut4" patternTransform="rotate(90) scale(0.016640626589457194 0.016640626589457194)"><image href="veneers/Walnut.jpg"/></pattern><pattern patternUnits="userSpaceOnUse" width="1024" height="1024" id="pat-Walnut3" patternTransform="rotate(67.5) scale(0.016640626589457194 0.016640626589457194)"><image href="veneers/Walnut.jpg"/></pattern><pattern patternUnits="userSpaceOnUse" width="1024" height="1024" id="pat-Walnut2" patternTransform="rotate(45) scale(0.016640626589457194 0.016640626589457194)"><image href="veneers/Walnut.jpg"/></pattern><pattern patternUnits="userSpaceOnUse" width="1024" height="1024" id="pat-Walnut1" patternTransform="rotate(22.5) scale(0.016640626589457194 0.016640626589457194)"><image href="veneers/Walnut.jpg"/></pattern><pattern patternUnits="userSpaceOnUse" width="1024" height="1024" id="pat-Walnut0" patternTransform="rotate(0) scale(0.016640626589457194 0.016640626589457194)"><image href="veneers/Walnut.jpg"/></pattern><pattern patternUnits="userSpaceOnUse" width="1024" height="1024" id="pat-SmokedOak7" patternTransform="rotate(157.5) scale(0.016640626589457194 0.016640626589457194)"><image href="veneers/SmokedOak.jpg"/></pattern><pattern patternUnits="userSpaceOnUse" width="1024" height="1024" id="pat-SmokedOak6" patternTransform="rotate(135) scale(0.016640626589457194 0.016640626589457194)"><image href="veneers/SmokedOak.jpg"/></pattern><pattern patternUnits="userSpaceOnUse" width="1024" height="1024" id="pat-SmokedOak5" patternTransform="rotate(112.5) scale(0.016640626589457194 0.016640626589457194)"><image href="veneers/SmokedOak.jpg"/></pattern><pattern patternUnits="userSpaceOnUse" width="1024" height="1024" id="pat-SmokedOak4" patternTransform="rotate(90) scale(0.016640626589457194 0.016640626589457194)"><image href="veneers/SmokedOak.jpg"/></pattern><pattern patternUnits="userSpaceOnUse" width="1024" height="1024" id="pat-SmokedOak3" patternTransform="rotate(67.5) scale(0.016640626589457194 0.016640626589457194)"><image href="veneers/SmokedOak.jpg"/></pattern><pattern patternUnits="userSpaceOnUse" width="1024" height="1024" id="pat-SmokedOak2" patternTransform="rotate(45) scale(0.016640626589457194 0.016640626589457194)"><image href="veneers/SmokedOak.jpg"/></pattern><pattern patternUnits="userSpaceOnUse" width="1024" height="1024" id="pat-SmokedOak1" patternTransform="rotate(22.5) scale(0.016640626589457194 0.016640626589457194)"><image href="veneers/SmokedOak.jpg"/></pattern><pattern patternUnits="userSpaceOnUse" width="1024" height="1024" id="pat-SmokedOak0" patternTransform="rotate(0) scale(0.016640626589457194 0.016640626589457194)"><image href="veneers/SmokedOak.jpg"/></pattern><pattern patternUnits="userSpaceOnUse" width="1024" height="1024" id="pat-Saple7" patternTransform="rotate(157.5) scale(0.016640626589457194 0.016640626589457194)"><image href="veneers/Saple.jpg"/></pattern><pattern patternUnits="userSpaceOnUse" width="1024" height="1024" id="pat-Saple6" patternTransform="rotate(135) scale(0.016640626589457194 0.016640626589457194)"><image href="veneers/Saple.jpg"/></pattern><pattern patternUnits="userSpaceOnUse" width="1024" height="1024" id="pat-Saple5" patternTransform="rotate(112.5) scale(0.016640626589457194 0.016640626589457194)"><image href="veneers/Saple.jpg"/></pattern><pattern patternUnits="userSpaceOnUse" width="1024" height="1024" id="pat-Saple4" patternTransform="rotate(90) scale(0.016640626589457194 0.016640626589457194)"><image href="veneers/Saple.jpg"/></pattern><pattern patternUnits="userSpaceOnUse" width="1024" height="1024" id="pat-Saple3" patternTransform="rotate(67.5) scale(0.016640626589457194 0.016640626589457194)"><image href="veneers/Saple.jpg"/></pattern><pattern patternUnits="userSpaceOnUse" width="1024" height="1024" id="pat-Saple2" patternTransform="rotate(45) scale(0.016640626589457194 0.016640626589457194)"><image href="veneers/Saple.jpg"/></pattern><pattern patternUnits="userSpaceOnUse" width="1024" height="1024" id="pat-Saple1" patternTransform="rotate(22.5) scale(0.016640626589457194 0.016640626589457194)"><image href="veneers/Saple.jpg"/></pattern><pattern patternUnits="userSpaceOnUse" width="1024" height="1024" id="pat-Saple0" patternTransform="rotate(0) scale(0.016640626589457194 0.016640626589457194)"><image href="veneers/Saple.jpg"/></pattern><pattern patternUnits="userSpaceOnUse" width="1024" height="1024" id="pat-RedOak7" patternTransform="rotate(157.5) scale(0.016640626589457194 0.016640626589457194)"><image href="veneers/RedOak.jpg"/></pattern><pattern patternUnits="userSpaceOnUse" width="1024" height="1024" id="pat-RedOak6" patternTransform="rotate(135) scale(0.016640626589457194 0.016640626589457194)"><image href="veneers/RedOak.jpg"/></pattern><pattern patternUnits="userSpaceOnUse" width="1024" height="1024" id="pat-RedOak5" patternTransform="rotate(112.5) scale(0.016640626589457194 0.016640626589457194)"><image href="veneers/RedOak.jpg"/></pattern><pattern patternUnits="userSpaceOnUse" width="1024" height="1024" id="pat-RedOak4" patternTransform="rotate(90) scale(0.016640626589457194 0.016640626589457194)"><image href="veneers/RedOak.jpg"/></pattern><pattern patternUnits="userSpaceOnUse" width="1024" height="1024" id="pat-RedOak3" patternTransform="rotate(67.5) scale(0.016640626589457194 0.016640626589457194)"><image href="veneers/RedOak.jpg"/></pattern><pattern patternUnits="userSpaceOnUse" width="1024" height="1024" id="pat-RedOak2" patternTransform="rotate(45) scale(0.016640626589457194 0.016640626589457194)"><image href="veneers/RedOak.jpg"/></pattern><pattern patternUnits="userSpaceOnUse" width="1024" height="1024" id="pat-RedOak1" patternTransform="rotate(22.5) scale(0.016640626589457194 0.016640626589457194)"><image href="veneers/RedOak.jpg"/></pattern><pattern patternUnits="userSpaceOnUse" width="1024" height="1024" id="pat-RedOak0" patternTransform="rotate(0) scale(0.016640626589457194 0.016640626589457194)"><image href="veneers/RedOak.jpg"/></pattern><pattern patternUnits="userSpaceOnUse" width="1024" height="1024" id="pat-RedBurl7" patternTransform="rotate(157.5) scale(0.016640626589457194 0.016640626589457194)"><image href="veneers/RedBurl.jpg"/></pattern><pattern patternUnits="userSpaceOnUse" width="1024" height="1024" id="pat-RedBurl6" patternTransform="rotate(135) scale(0.016640626589457194 0.016640626589457194)"><image href="veneers/RedBurl.jpg"/></pattern><pattern patternUnits="userSpaceOnUse" width="1024" height="1024" id="pat-RedBurl5" patternTransform="rotate(112.5) scale(0.016640626589457194 0.016640626589457194)"><image href="veneers/RedBurl.jpg"/></pattern><pattern patternUnits="userSpaceOnUse" width="1024" height="1024" id="pat-RedBurl4" patternTransform="rotate(90) scale(0.016640626589457194 0.016640626589457194)"><image href="veneers/RedBurl.jpg"/></pattern><pattern patternUnits="userSpaceOnUse" width="1024" height="1024" id="pat-RedBurl3" patternTransform="rotate(67.5) scale(0.016640626589457194 0.016640626589457194)"><image href="veneers/RedBurl.jpg"/></pattern><pattern patternUnits="userSpaceOnUse" width="1024" height="1024" id="pat-RedBurl2" patternTransform="rotate(45) scale(0.016640626589457194 0.016640626589457194)"><image href="veneers/RedBurl.jpg"/></pattern><pattern patternUnits="userSpaceOnUse" width="1024" height="1024" id="pat-RedBurl1" patternTransform="rotate(22.5) scale(0.016640626589457194 0.016640626589457194)"><image href="veneers/RedBurl.jpg"/></pattern><pattern patternUnits="userSpaceOnUse" width="1024" height="1024" id="pat-RedBurl0" patternTransform="rotate(0) scale(0.016640626589457194 0.016640626589457194)"><image href="veneers/RedBurl.jpg"/></pattern><pattern patternUnits="userSpaceOnUse" width="1024" height="1024" id="pat-Poplar7" patternTransform="rotate(157.5) scale(0.016640626589457194 0.016640626589457194)"><image href="veneers/Poplar.jpg"/></pattern><pattern patternUnits="userSpaceOnUse" width="1024" height="1024" id="pat-Poplar6" patternTransform="rotate(135) scale(0.016640626589457194 0.016640626589457194)"><image href="veneers/Poplar.jpg"/></pattern><pattern patternUnits="userSpaceOnUse" width="1024" height="1024" id="pat-Poplar5" patternTransform="rotate(112.5) scale(0.016640626589457194 0.016640626589457194)"><image href="veneers/Poplar.jpg"/></pattern><pattern patternUnits="userSpaceOnUse" width="1024" height="1024" id="pat-Poplar4" patternTransform="rotate(90) scale(0.016640626589457194 0.016640626589457194)"><image href="veneers/Poplar.jpg"/></pattern><pattern patternUnits="userSpaceOnUse" width="1024" height="1024" id="pat-Poplar3" patternTransform="rotate(67.5) scale(0.016640626589457194 0.016640626589457194)"><image href="veneers/Poplar.jpg"/></pattern><pattern patternUnits="userSpaceOnUse" width="1024" height="1024" id="pat-Poplar2" patternTransform="rotate(45) scale(0.016640626589457194 0.016640626589457194)"><image href="veneers/Poplar.jpg"/></pattern><pattern patternUnits="userSpaceOnUse" width="1024" height="1024" id="pat-Poplar1" patternTransform="rotate(22.5) scale(0.016640626589457194 0.016640626589457194)"><image href="veneers/Poplar.jpg"/></pattern><pattern patternUnits="userSpaceOnUse" width="1024" height="1024" id="pat-Poplar0" patternTransform="rotate(0) scale(0.016640626589457194 0.016640626589457194)"><image href="veneers/Poplar.jpg"/></pattern><pattern patternUnits="userSpaceOnUse" width="1024" height="1024" id="pat-Padauk7" patternTransform="rotate(157.5) scale(0.016640626589457194 0.016640626589457194)"><image href="veneers/Padauk.jpg"/></pattern><pattern patternUnits="userSpaceOnUse" width="1024" height="1024" id="pat-Padauk6" patternTransform="rotate(135) scale(0.016640626589457194 0.016640626589457194)"><image href="veneers/Padauk.jpg"/></pattern><pattern patternUnits="userSpaceOnUse" width="1024" height="1024" id="pat-Padauk5" patternTransform="rotate(112.5) scale(0.016640626589457194 0.016640626589457194)"><image href="veneers/Padauk.jpg"/></pattern><pattern patternUnits="userSpaceOnUse" width="1024" height="1024" id="pat-Padauk4" patternTransform="rotate(90) scale(0.016640626589457194 0.016640626589457194)"><image href="veneers/Padauk.jpg"/></pattern><pattern patternUnits="userSpaceOnUse" width="1024" height="1024" id="pat-Padauk3" patternTransform="rotate(67.5) scale(0.016640626589457194 0.016640626589457194)"><image href="veneers/Padauk.jpg"/></pattern><pattern patternUnits="userSpaceOnUse" width="1024" height="1024" id="pat-Padauk2" patternTransform="rotate(45) scale(0.016640626589457194 0.016640626589457194)"><image href="veneers/Padauk.jpg"/></pattern><pattern patternUnits="userSpaceOnUse" width="1024" height="1024" id="pat-Padauk1" patternTransform="rotate(22.5) scale(0.016640626589457194 0.016640626589457194)"><image href="veneers/Padauk.jpg"/></pattern><pattern patternUnits="userSpaceOnUse" width="1024" height="1024" id="pat-Padauk0" patternTransform="rotate(0) scale(0.016640626589457194 0.016640626589457194)"><image href="veneers/Padauk.jpg"/></pattern><pattern patternUnits="userSpaceOnUse" width="1024" height="1024" id="pat-Maple7" patternTransform="rotate(157.5) scale(0.016640626589457194 0.016640626589457194)"><image href="veneers/Maple.jpg"/></pattern><pattern patternUnits="userSpaceOnUse" width="1024" height="1024" id="pat-Maple6" patternTransform="rotate(135) scale(0.016640626589457194 0.016640626589457194)"><image href="veneers/Maple.jpg"/></pattern><pattern patternUnits="userSpaceOnUse" width="1024" height="1024" id="pat-Maple5" patternTransform="rotate(112.5) scale(0.016640626589457194 0.016640626589457194)"><image href="veneers/Maple.jpg"/></pattern><pattern patternUnits="userSpaceOnUse" width="1024" height="1024" id="pat-Maple4" patternTransform="rotate(90) scale(0.016640626589457194 0.016640626589457194)"><image href="veneers/Maple.jpg"/></pattern><pattern patternUnits="userSpaceOnUse" width="1024" height="1024" id="pat-Maple3" patternTransform="rotate(67.5) scale(0.016640626589457194 0.016640626589457194)"><image href="veneers/Maple.jpg"/></pattern><pattern patternUnits="userSpaceOnUse" width="1024" height="1024" id="pat-Maple2" patternTransform="rotate(45) scale(0.016640626589457194 0.016640626589457194)"><image href="veneers/Maple.jpg"/></pattern><pattern patternUnits="userSpaceOnUse" width="1024" height="1024" id="pat-Maple1" patternTransform="rotate(22.5) scale(0.016640626589457194 0.016640626589457194)"><image href="veneers/Maple.jpg"/></pattern><pattern patternUnits="userSpaceOnUse" width="1024" height="1024" id="pat-Maple0" patternTransform="rotate(0) scale(0.016640626589457194 0.016640626589457194)"><image href="veneers/Maple.jpg"/></pattern><pattern patternUnits="userSpaceOnUse" width="1024" height="1024" id="pat-Makope7" patternTransform="rotate(157.5) scale(0.016640626589457194 0.016640626589457194)"><image href="veneers/Makope.jpg"/></pattern><pattern patternUnits="userSpaceOnUse" width="1024" height="1024" id="pat-Makope6" patternTransform="rotate(135) scale(0.016640626589457194 0.016640626589457194)"><image href="veneers/Makope.jpg"/></pattern><pattern patternUnits="userSpaceOnUse" width="1024" height="1024" id="pat-Makope5" patternTransform="rotate(112.5) scale(0.016640626589457194 0.016640626589457194)"><image href="veneers/Makope.jpg"/></pattern><pattern patternUnits="userSpaceOnUse" width="1024" height="1024" id="pat-Makope4" patternTransform="rotate(90) scale(0.016640626589457194 0.016640626589457194)"><image href="veneers/Makope.jpg"/></pattern><pattern patternUnits="userSpaceOnUse" width="1024" height="1024" id="pat-Makope3" patternTransform="rotate(67.5) scale(0.016640626589457194 0.016640626589457194)"><image href="veneers/Makope.jpg"/></pattern><pattern patternUnits="userSpaceOnUse" width="1024" height="1024" id="pat-Makope2" patternTransform="rotate(45) scale(0.016640626589457194 0.016640626589457194)"><image href="veneers/Makope.jpg"/></pattern><pattern patternUnits="userSpaceOnUse" width="1024" height="1024" id="pat-Makope1" patternTransform="rotate(22.5) scale(0.016640626589457194 0.016640626589457194)"><image href="veneers/Makope.jpg"/></pattern><pattern patternUnits="userSpaceOnUse" width="1024" height="1024" id="pat-Makope0" patternTransform="rotate(0) scale(0.016640626589457194 0.016640626589457194)"><image href="veneers/Makope.jpg"/></pattern><pattern patternUnits="userSpaceOnUse" width="1024" height="1024" id="pat-Mahogany7" patternTransform="rotate(157.5) scale(0.016640626589457194 0.016640626589457194)"><image href="veneers/Mahogany.jpg"/></pattern><pattern patternUnits="userSpaceOnUse" width="1024" height="1024" id="pat-Mahogany6" patternTransform="rotate(135) scale(0.016640626589457194 0.016640626589457194)"><image href="veneers/Mahogany.jpg"/></pattern><pattern patternUnits="userSpaceOnUse" width="1024" height="1024" id="pat-Mahogany5" patternTransform="rotate(112.5) scale(0.016640626589457194 0.016640626589457194)"><image href="veneers/Mahogany.jpg"/></pattern><pattern patternUnits="userSpaceOnUse" width="1024" height="1024" id="pat-Mahogany4" patternTransform="rotate(90) scale(0.016640626589457194 0.016640626589457194)"><image href="veneers/Mahogany.jpg"/></pattern><pattern patternUnits="userSpaceOnUse" width="1024" height="1024" id="pat-Mahogany3" patternTransform="rotate(67.5) scale(0.016640626589457194 0.016640626589457194)"><image href="veneers/Mahogany.jpg"/></pattern><pattern patternUnits="userSpaceOnUse" width="1024" height="1024" id="pat-Mahogany2" patternTransform="rotate(45) scale(0.016640626589457194 0.016640626589457194)"><image href="veneers/Mahogany.jpg"/></pattern><pattern patternUnits="userSpaceOnUse" width="1024" height="1024" id="pat-Mahogany1" patternTransform="rotate(22.5) scale(0.016640626589457194 0.016640626589457194)"><image href="veneers/Mahogany.jpg"/></pattern><pattern patternUnits="userSpaceOnUse" width="1024" height="1024" id="pat-Mahogany0" patternTransform="rotate(0) scale(0.016640626589457194 0.016640626589457194)"><image href="veneers/Mahogany.jpg"/></pattern><pattern patternUnits="userSpaceOnUse" width="1024" height="1024" id="pat-Lark7" patternTransform="rotate(157.5) scale(0.016640626589457194 0.016640626589457194)"><image href="veneers/Lark.jpg"/></pattern><pattern patternUnits="userSpaceOnUse" width="1024" height="1024" id="pat-Lark6" patternTransform="rotate(135) scale(0.016640626589457194 0.016640626589457194)"><image href="veneers/Lark.jpg"/></pattern><pattern patternUnits="userSpaceOnUse" width="1024" height="1024" id="pat-Lark5" patternTransform="rotate(112.5) scale(0.016640626589457194 0.016640626589457194)"><image href="veneers/Lark.jpg"/></pattern><pattern patternUnits="userSpaceOnUse" width="1024" height="1024" id="pat-Lark4" patternTransform="rotate(90) scale(0.016640626589457194 0.016640626589457194)"><image href="veneers/Lark.jpg"/></pattern><pattern patternUnits="userSpaceOnUse" width="1024" height="1024" id="pat-Lark3" patternTransform="rotate(67.5) scale(0.016640626589457194 0.016640626589457194)"><image href="veneers/Lark.jpg"/></pattern><pattern patternUnits="userSpaceOnUse" width="1024" height="1024" id="pat-Lark2" patternTransform="rotate(45) scale(0.016640626589457194 0.016640626589457194)"><image href="veneers/Lark.jpg"/></pattern><pattern patternUnits="userSpaceOnUse" width="1024" height="1024" id="pat-Lark1" patternTransform="rotate(22.5) scale(0.016640626589457194 0.016640626589457194)"><image href="veneers/Lark.jpg"/></pattern><pattern patternUnits="userSpaceOnUse" width="1024" height="1024" id="pat-Lark0" patternTransform="rotate(0) scale(0.016640626589457194 0.016640626589457194)"><image href="veneers/Lark.jpg"/></pattern><pattern patternUnits="userSpaceOnUse" width="1024" height="1024" id="pat-Lacewood7" patternTransform="rotate(157.5) scale(0.016640626589457194 0.016640626589457194)"><image href="veneers/Lacewood.jpg"/></pattern><pattern patternUnits="userSpaceOnUse" width="1024" height="1024" id="pat-Lacewood6" patternTransform="rotate(135) scale(0.016640626589457194 0.016640626589457194)"><image href="veneers/Lacewood.jpg"/></pattern><pattern patternUnits="userSpaceOnUse" width="1024" height="1024" id="pat-Lacewood5" patternTransform="rotate(112.5) scale(0.016640626589457194 0.016640626589457194)"><image href="veneers/Lacewood.jpg"/></pattern><pattern patternUnits="userSpaceOnUse" width="1024" height="1024" id="pat-Lacewood4" patternTransform="rotate(90) scale(0.016640626589457194 0.016640626589457194)"><image href="veneers/Lacewood.jpg"/></pattern><pattern patternUnits="userSpaceOnUse" width="1024" height="1024" id="pat-Lacewood3" patternTransform="rotate(67.5) scale(0.016640626589457194 0.016640626589457194)"><image href="veneers/Lacewood.jpg"/></pattern><pattern patternUnits="userSpaceOnUse" width="1024" height="1024" id="pat-Lacewood2" patternTransform="rotate(45) scale(0.016640626589457194 0.016640626589457194)"><image href="veneers/Lacewood.jpg"/></pattern><pattern patternUnits="userSpaceOnUse" width="1024" height="1024" id="pat-Lacewood1" patternTransform="rotate(22.5) scale(0.016640626589457194 0.016640626589457194)"><image href="veneers/Lacewood.jpg"/></pattern><pattern patternUnits="userSpaceOnUse" width="1024" height="1024" id="pat-Lacewood0" patternTransform="rotate(0) scale(0.016640626589457194 0.016640626589457194)"><image href="veneers/Lacewood.jpg"/></pattern><pattern patternUnits="userSpaceOnUse" width="1024" height="1024" id="pat-Eucalyptus7" patternTransform="rotate(157.5) scale(0.016640626589457194 0.016640626589457194)"><image href="veneers/Eucalyptus.jpg"/></pattern><pattern patternUnits="userSpaceOnUse" width="1024" height="1024" id="pat-Eucalyptus6" patternTransform="rotate(135) scale(0.016640626589457194 0.016640626589457194)"><image href="veneers/Eucalyptus.jpg"/></pattern><pattern patternUnits="userSpaceOnUse" width="1024" height="1024" id="pat-Eucalyptus5" patternTransform="rotate(112.5) scale(0.016640626589457194 0.016640626589457194)"><image href="veneers/Eucalyptus.jpg"/></pattern><pattern patternUnits="userSpaceOnUse" width="1024" height="1024" id="pat-Eucalyptus4" patternTransform="rotate(90) scale(0.016640626589457194 0.016640626589457194)"><image href="veneers/Eucalyptus.jpg"/></pattern><pattern patternUnits="userSpaceOnUse" width="1024" height="1024" id="pat-Eucalyptus3" patternTransform="rotate(67.5) scale(0.016640626589457194 0.016640626589457194)"><image href="veneers/Eucalyptus.jpg"/></pattern><pattern patternUnits="userSpaceOnUse" width="1024" height="1024" id="pat-Eucalyptus2" patternTransform="rotate(45) scale(0.016640626589457194 0.016640626589457194)"><image href="veneers/Eucalyptus.jpg"/></pattern><pattern patternUnits="userSpaceOnUse" width="1024" height="1024" id="pat-Eucalyptus1" patternTransform="rotate(22.5) scale(0.016640626589457194 0.016640626589457194)"><image href="veneers/Eucalyptus.jpg"/></pattern><pattern patternUnits="userSpaceOnUse" width="1024" height="1024" id="pat-Eucalyptus0" patternTransform="rotate(0) scale(0.016640626589457194 0.016640626589457194)"><image href="veneers/Eucalyptus.jpg"/></pattern><pattern patternUnits="userSpaceOnUse" width="1024" height="1024" id="pat-Cherry7" patternTransform="rotate(157.5) scale(0.016640626589457194 0.016640626589457194)"><image href="veneers/Cherry.jpg"/></pattern><pattern patternUnits="userSpaceOnUse" width="1024" height="1024" id="pat-Cherry6" patternTransform="rotate(135) scale(0.016640626589457194 0.016640626589457194)"><image href="veneers/Cherry.jpg"/></pattern><pattern patternUnits="userSpaceOnUse" width="1024" height="1024" id="pat-Cherry5" patternTransform="rotate(112.5) scale(0.016640626589457194 0.016640626589457194)"><image href="veneers/Cherry.jpg"/></pattern><pattern patternUnits="userSpaceOnUse" width="1024" height="1024" id="pat-Cherry4" patternTransform="rotate(90) scale(0.016640626589457194 0.016640626589457194)"><image href="veneers/Cherry.jpg"/></pattern><pattern patternUnits="userSpaceOnUse" width="1024" height="1024" id="pat-Cherry3" patternTransform="rotate(67.5) scale(0.016640626589457194 0.016640626589457194)"><image href="veneers/Cherry.jpg"/></pattern><pattern patternUnits="userSpaceOnUse" width="1024" height="1024" id="pat-Cherry2" patternTransform="rotate(45) scale(0.016640626589457194 0.016640626589457194)"><image href="veneers/Cherry.jpg"/></pattern><pattern patternUnits="userSpaceOnUse" width="1024" height="1024" id="pat-Cherry1" patternTransform="rotate(22.5) scale(0.016640626589457194 0.016640626589457194)"><image href="veneers/Cherry.jpg"/></pattern><pattern patternUnits="userSpaceOnUse" width="1024" height="1024" id="pat-Cherry0" patternTransform="rotate(0) scale(0.016640626589457194 0.016640626589457194)"><image href="veneers/Cherry.jpg"/></pattern><pattern patternUnits="userSpaceOnUse" width="1024" height="1024" id="pat-Bubinga7" patternTransform="rotate(157.5) scale(0.016640626589457194 0.016640626589457194)"><image href="veneers/Bubinga.jpg"/></pattern><pattern patternUnits="userSpaceOnUse" width="1024" height="1024" id="pat-Bubinga6" patternTransform="rotate(135) scale(0.016640626589457194 0.016640626589457194)"><image href="veneers/Bubinga.jpg"/></pattern><pattern patternUnits="userSpaceOnUse" width="1024" height="1024" id="pat-Bubinga5" patternTransform="rotate(112.5) scale(0.016640626589457194 0.016640626589457194)"><image href="veneers/Bubinga.jpg"/></pattern><pattern patternUnits="userSpaceOnUse" width="1024" height="1024" id="pat-Bubinga4" patternTransform="rotate(90) scale(0.016640626589457194 0.016640626589457194)"><image href="veneers/Bubinga.jpg"/></pattern><pattern patternUnits="userSpaceOnUse" width="1024" height="1024" id="pat-Bubinga3" patternTransform="rotate(67.5) scale(0.016640626589457194 0.016640626589457194)"><image href="veneers/Bubinga.jpg"/></pattern><pattern patternUnits="userSpaceOnUse" width="1024" height="1024" id="pat-Bubinga2" patternTransform="rotate(45) scale(0.016640626589457194 0.016640626589457194)"><image href="veneers/Bubinga.jpg"/></pattern><pattern patternUnits="userSpaceOnUse" width="1024" height="1024" id="pat-Bubinga1" patternTransform="rotate(22.5) scale(0.016640626589457194 0.016640626589457194)"><image href="veneers/Bubinga.jpg"/></pattern><pattern patternUnits="userSpaceOnUse" width="1024" height="1024" id="pat-Bubinga0" patternTransform="rotate(0) scale(0.016640626589457194 0.016640626589457194)"><image href="veneers/Bubinga.jpg"/></pattern><pattern patternUnits="userSpaceOnUse" width="1024" height="1024" id="pat-Birch7" patternTransform="rotate(157.5) scale(0.016640626589457194 0.016640626589457194)"><image href="veneers/Birch.jpg"/></pattern><pattern patternUnits="userSpaceOnUse" width="1024" height="1024" id="pat-Birch6" patternTransform="rotate(135) scale(0.016640626589457194 0.016640626589457194)"><image href="veneers/Birch.jpg"/></pattern><pattern patternUnits="userSpaceOnUse" width="1024" height="1024" id="pat-Birch5" patternTransform="rotate(112.5) scale(0.016640626589457194 0.016640626589457194)"><image href="veneers/Birch.jpg"/></pattern><pattern patternUnits="userSpaceOnUse" width="1024" height="1024" id="pat-Birch4" patternTransform="rotate(90) scale(0.016640626589457194 0.016640626589457194)"><image href="veneers/Birch.jpg"/></pattern><pattern patternUnits="userSpaceOnUse" width="1024" height="1024" id="pat-Birch3" patternTransform="rotate(67.5) scale(0.016640626589457194 0.016640626589457194)"><image href="veneers/Birch.jpg"/></pattern><pattern patternUnits="userSpaceOnUse" width="1024" height="1024" id="pat-Birch2" patternTransform="rotate(45) scale(0.016640626589457194 0.016640626589457194)"><image href="veneers/Birch.jpg"/></pattern><pattern patternUnits="userSpaceOnUse" width="1024" height="1024" id="pat-Birch1" patternTransform="rotate(22.5) scale(0.016640626589457194 0.016640626589457194)"><image href="veneers/Birch.jpg"/></pattern><pattern patternUnits="userSpaceOnUse" width="1024" height="1024" id="pat-Birch0" patternTransform="rotate(0) scale(0.016640626589457194 0.016640626589457194)"><image href="veneers/Birch.jpg"/></pattern><pattern patternUnits="userSpaceOnUse" width="1024" height="1024" id="pat-Anigre7" patternTransform="rotate(157.5) scale(0.016640626589457194 0.016640626589457194)"><image href="veneers/Anigre.jpg"/></pattern><pattern patternUnits="userSpaceOnUse" width="1024" height="1024" id="pat-Anigre6" patternTransform="rotate(135) scale(0.016640626589457194 0.016640626589457194)"><image href="veneers/Anigre.jpg"/></pattern><pattern patternUnits="userSpaceOnUse" width="1024" height="1024" id="pat-Anigre5" patternTransform="rotate(112.5) scale(0.016640626589457194 0.016640626589457194)"><image href="veneers/Anigre.jpg"/></pattern><pattern patternUnits="userSpaceOnUse" width="1024" height="1024" id="pat-Anigre4" patternTransform="rotate(90) scale(0.016640626589457194 0.016640626589457194)"><image href="veneers/Anigre.jpg"/></pattern><pattern patternUnits="userSpaceOnUse" width="1024" height="1024" id="pat-Anigre3" patternTransform="rotate(67.5) scale(0.016640626589457194 0.016640626589457194)"><image href="veneers/Anigre.jpg"/></pattern><pattern patternUnits="userSpaceOnUse" width="1024" height="1024" id="pat-Anigre2" patternTransform="rotate(45) scale(0.016640626589457194 0.016640626589457194)"><image href="veneers/Anigre.jpg"/></pattern><pattern patternUnits="userSpaceOnUse" width="1024" height="1024" id="pat-Anigre1" patternTransform="rotate(22.5) scale(0.016640626589457194 0.016640626589457194)"><image href="veneers/Anigre.jpg"/></pattern><pattern patternUnits="userSpaceOnUse" width="1024" height="1024" id="pat-Anigre0" patternTransform="rotate(0) scale(0.016640626589457194 0.016640626589457194)"><image href="veneers/Anigre.jpg"/></pattern>
<g>
	<path fill-rule="evenodd" clip-rule="evenodd" d="M41.75,216.71c0,6.36-0.21,9.95-0.63,10.79c-0.42,0.84-1.62,1.25-3.61,1.25H35   V231h10.62h9.63v-2.25h-2c-2.21,0-3.55-0.43-4.04-1.31c-0.48-0.87-0.71-4.27-0.71-10.2v-26.63c0-4.59,0.22-7.25,0.68-8   c0.46-0.74,1.72-1.11,3.78-1.11h2.29v-2.25H47.7h-6.24c-3.94,9.01-7.44,16.72-10.51,23.12l-8.76,18.31l-9.87-19.76   c-3.96-7.89-7.45-15.11-10.47-21.67h-6h-8.1v2.25h1.85c1.77,0,2.95,0.22,3.55,0.66c0.59,0.44,0.94,1.07,1.03,1.89   c0.21,1.61,0.32,4.9,0.32,9.87v20.63v10.99c-0.13,1.22-0.47,2.06-1.02,2.52c-0.55,0.47-1.65,0.69-3.29,0.69h-2.44V231h9.08H5v-2.25   H3.7c-2.63,0-4.2-0.45-4.7-1.36c-0.5-0.9-0.75-4.71-0.75-11.44v-28.84l13.43,27.61c4.37,9.14,7.02,14.83,7.95,17.03h1.5   c2.57-6.3,5.87-13.66,9.9-22.1l10.72-22.48V216.71z" id="ptx-0" style="stroke: rgb(0, 0, 0); fill: url('#pat-SmokedOak0');"/>
	<path fill-rule="evenodd" clip-rule="evenodd" d="M78.5,213.26v7.99c-1.52,1.99-3.13,3.48-4.8,4.49c-1.69,1.01-3.45,1.51-5.28,1.51   c-1.67,0-3.03-0.53-4.09-1.59c-1.05-1.07-1.58-2.49-1.58-4.27c0-2.64,0.91-4.58,2.75-5.85c1.84-1.25,6.18-2.6,13-4.04V213.26z    M61.25,206.25c0.59-1.43,1.23-2.93,1.95-4.5c0.86-0.75,1.81-1.31,2.84-1.69c1.03-0.37,2.14-0.56,3.31-0.56   c3.07,0,5.44,0.96,7.1,2.86c1.31,1.52,2,3.82,2.05,6.89c-8.13,1.42-13.31,2.57-15.54,3.43c-2.23,0.88-3.95,2.24-5.16,4.08   c-1.2,1.84-1.8,3.99-1.8,6.45c0,2.6,0.84,4.67,2.54,6.22c1.69,1.55,4.15,2.32,7.36,2.32c1.2,0,2.12-0.11,2.8-0.32   c0.67-0.21,1.36-0.57,2.07-1.09l7.73-5.86c0.02,1.09,0.04,2.17,0.04,3.23L78.5,231h5.46h5.79v-2.25h-2.93   c-1.01,0-1.63-0.34-1.87-1.02c-0.26-0.68-0.4-4.31-0.45-10.87c-0.07-6.94-0.26-11.3-0.55-13.06c-0.42-2.34-1.65-4.26-3.72-5.78   c-2.06-1.51-4.78-2.27-8.15-2.27c-1.55,0-2.99,0.21-4.35,0.62c-1.36,0.41-2.93,1.16-4.73,2.24L59,201l0.04,2.4L59,205.72   L61.25,206.25z" id="ptx-1" style="stroke: rgb(0, 0, 0); fill: url('#pat-SmokedOak0');"/>
	<path fill-rule="evenodd" clip-rule="evenodd" d="M102.5,196.98c0-0.52-0.06-0.86-0.15-1.01c-0.1-0.14-0.28-0.22-0.54-0.22   c-0.22,0-0.51,0.09-0.85,0.26c-1.42,0.68-3.07,1.24-4.91,1.67c-1.85,0.45-3.94,0.8-6.3,1.07V201h3.07c1.66,0,2.66,0.33,2.99,0.96   c0.46,1.01,0.69,4.38,0.69,10.13c0,4.72-0.09,8.8-0.26,12.23c-0.09,1.96-0.3,3.12-0.63,3.47s-1.11,0.58-2.36,0.68l-3.5,0.28V231   h9.63H110v-2.25h-2.21c-1.83,0-3.2-0.25-4.14-0.75c-0.4-0.21-0.65-0.74-0.74-1.57c-0.28-2.26-0.41-5.05-0.41-8.37   c0-5.02,0.19-8.4,0.59-10.12c0.39-1.71,1.17-3.05,2.34-4.01c1.17-0.95,2.44-1.43,3.81-1.43c1.01,0,1.89,0.23,2.61,0.68   c0.73,0.46,1.36,1.23,1.9,2.32H116c0.06-3.53,0.3-6.27,0.75-8.23l0.04-0.36c0-0.3-0.18-0.54-0.52-0.69   c-0.7-0.31-1.73-0.47-3.07-0.47c-1.3,0-2.53,0.34-3.7,1.02c-1.18,0.68-2.45,1.94-3.81,3.78c-1.15,1.57-2.22,2.83-3.19,3.79V196.98z   " id="ptx-2" style="stroke: rgb(0, 0, 0); fill: url('#pat-SmokedOak0');"/>
	<path fill-rule="evenodd" clip-rule="evenodd" d="M144.5,214.8v7.14c-1.57,1.95-3.12,3.32-4.62,4.11c-1.51,0.8-3.06,1.2-4.65,1.2   c-3.05,0-5.65-1.32-7.78-3.97c-2.13-2.65-3.2-6.33-3.2-11.04c0-4.56,1.02-8.08,3.06-10.54s4.71-3.7,8.01-3.7   c1.74,0,3.33,0.29,4.76,0.87c1.43,0.57,2.9,1.56,4.42,2.94V214.8z M142.27,196.22c-1.6-0.31-3.21-0.47-4.81-0.47   c-2.75,0-5.17,0.59-7.29,1.75c-4.01,2.22-6.25,3.5-6.74,3.83c-1.9,1.37-3.36,3.19-4.39,5.46c-1.04,2.27-1.54,5.07-1.54,8.4   c0,5.02,1.41,9.02,4.22,12.04c2.81,3.02,6.35,4.52,10.63,4.52c0.49,0,1.03-0.05,1.61-0.11c0.59-0.08,1.22-0.18,1.92-0.3   c2.82-1.89,5.69-3.72,8.62-5.47v8.73c0,7.84-0.21,12.2-0.63,13.09c-0.42,0.86-1.77,1.31-4.07,1.31h-2.05v2.25h9h4.65h5.85V249   h-1.71c-2.4,0-3.84-0.47-4.33-1.39c-0.48-0.94-0.71-5.15-0.71-12.63v-20.33c0-5.76,0.11-9.88,0.34-12.33   c0.14-1.59,0.53-3.51,1.16-5.76l-1.31-0.81l-3.6,1.85C145.47,196.99,143.87,196.52,142.27,196.22z" id="ptx-3" style="stroke: rgb(0, 0, 0); fill: url('#pat-Zebrawood1');"/>
	<path fill-rule="evenodd" clip-rule="evenodd" d="M165.79,201.11c1.66-2.07,3.86-3.11,6.62-3.11c1.77,0,3.33,0.41,4.69,1.21   c1.36,0.81,2.31,1.81,2.86,3.02c0.86,1.95,1.29,4.01,1.29,6.19v2.07c-1.73,0.18-3.52,0.26-5.36,0.26h-12.64   C163.3,206.39,164.14,203.17,165.79,201.11z M172.45,213c4.65,0,8.3-0.07,10.92-0.21c1.47-0.08,3.01-0.26,4.63-0.54v-2.14   c0-4.53-1.27-8.06-3.77-10.57c-2.51-2.52-5.92-3.79-10.21-3.79c-2.85,0-5.78,0.84-8.79,2.52c-3.01,1.69-5.07,3.5-6.18,5.47   c-1.71,2.99-2.55,6.53-2.55,10.61c0,5.35,1.52,9.6,4.58,12.71c3.05,3.13,7.07,4.69,12.05,4.69c2.27,0,4.5-0.32,6.66-0.94   c2.15-0.62,4.25-1.56,6.29-2.81l1.17-3.07l-0.63-0.55c-1.69,1.21-3.38,2.11-5.09,2.72c-1.71,0.61-3.43,0.9-5.17,0.9   c-3.86,0-6.98-1.27-9.36-3.81s-3.63-6.27-3.75-11.19H172.45z" id="ptx-4" style="stroke: rgb(0, 0, 0); fill: url('#pat-SmokedOak0');"/>
	<path fill-rule="evenodd" clip-rule="evenodd" d="M202.12,202.5l7.52-0.05l1.61,0.05l0.75-3.75h-3.22h-8.03   c0.26-7.1,0.52-11.61,0.75-13.51l-0.91-0.74c-1.2,0.74-3.14,1.7-5.84,2.89v11.36c-1.84,0.81-3.84,1.58-6,2.31v1.44h6v13.95v7.07   c0,2.11,0.28,3.69,0.87,4.73c0.57,1.04,1.5,1.88,2.77,2.53c1.28,0.64,2.85,0.97,4.7,0.97c0.71,0,1.43-0.07,2.18-0.19   c0.75-0.14,1.53-0.33,2.34-0.56l3.64-4.02l-1.14-1.23c-0.7,0.5-1.41,0.88-2.13,1.12c-0.73,0.26-1.46,0.38-2.21,0.38   c-1.23,0-2.24-0.28-3.04-0.87c-0.8-0.58-1.34-1.39-1.59-2.45c-0.26-1.04-0.39-3.42-0.39-7.14V202.5H202.12z" id="ptx-5" style="stroke: rgb(0, 0, 0); fill: url('#pat-SmokedOak0');"/>
</g>
<g>
	<path fill-rule="evenodd" clip-rule="evenodd" d="M162.5,261.93c0-2.84,0.11-4.59,0.32-5.24c0.28-0.87,0.93-1.83,1.95-2.87   c1.01-1.03,2.21-1.86,3.57-2.44c1.36-0.59,2.74-0.88,4.17-0.88c2,0,3.88,0.55,5.63,1.63c1.75,1.09,3.07,2.59,3.99,4.51   c0.91,1.92,1.37,4.22,1.37,6.89c0,4.01-1,7.45-2.99,10.36c-1.99,2.91-4.85,4.36-8.58,4.36c-1.75,0-3.38-0.36-4.89-1.09   c-1.52-0.73-3.03-1.98-4.54-3.74V261.93z M162.5,250.76V247c0-0.66-0.19-1-0.55-1l-2.09,0.89c-3.07,1.04-6.18,1.75-9.36,2.11v2.25   h2.63c1.27,0,2.08,0.16,2.43,0.49c0.35,0.33,0.58,1.01,0.67,2.03c0.18,2.12,0.27,5.12,0.27,9.01v22.42   c0,7.76-0.16,12.03-0.48,12.84c-0.32,0.8-1.34,1.21-3.06,1.21h-2.46v2.25h8.48h9.52v-2.25h-1.82c-1.6,0-2.64-0.22-3.14-0.64   c-0.49-0.44-0.77-1.13-0.84-2.09c-0.14-2.18-0.2-5.94-0.2-11.26v-5.19c1.37,0.63,2.68,1.11,3.95,1.44   c1.25,0.33,2.45,0.49,3.59,0.49c1.44,0,2.73-0.21,3.85-0.6c1.13-0.4,2.6-1.25,4.44-2.54l1.46-1.06c2.57-1.61,4.04-2.57,4.41-2.88   c1.08-0.87,2.07-1.96,2.93-3.26c0.87-1.3,1.6-2.97,2.21-5.04c0.61-2.05,0.91-4.13,0.91-6.25c0-4.22-1.34-7.68-3.98-10.35   c-2.66-2.67-6.14-4.02-10.43-4.02c-1.93,0-3.59,0.23-5.01,0.68c-0.89,0.29-1.98,1.01-3.26,2.13l-5.07,4.47V250.76z" id="ptx-6" style="stroke: rgb(0, 0, 0); fill: url('#pat-Zebrawood1');"/>
	<path fill-rule="evenodd" clip-rule="evenodd" d="M202.38,237c-3.02,1.23-7.07,2.04-12.13,2.42v1.82h3c1.24,0,2.05,0.16,2.45,0.48   c0.27,0.21,0.41,0.8,0.41,1.76l0.1,3.84l0.04,5.64v14.99c0,6.2-0.16,9.66-0.48,10.42c-0.2,0.47-1,0.76-2.38,0.85l-3.14,0.21v1.82   h10.45h7.55v-1.82l-3.11-0.26c-1.45-0.12-2.25-0.38-2.41-0.8c-0.33-0.8-0.48-4.21-0.48-10.23v-15.16c0-4.65,0.25-9.86,0.75-15.63   L202.38,237z" id="ptx-7" style="stroke: rgb(0, 0, 0); fill: url('#pat-SmokedOak0');"/>
	<path fill-rule="evenodd" clip-rule="evenodd" d="M233.75,263.51v7.99c-1.52,1.99-3.13,3.48-4.8,4.49   c-1.69,1.01-3.45,1.51-5.28,1.51c-1.67,0-3.03-0.53-4.09-1.59c-1.05-1.07-1.58-2.49-1.58-4.27c0-2.64,0.91-4.58,2.75-5.85   c1.84-1.25,6.18-2.6,13-4.04V263.51z M216.5,256.5c0.59-1.43,1.23-2.93,1.95-4.5c0.86-0.75,1.81-1.31,2.84-1.69   c1.03-0.37,2.14-0.56,3.31-0.56c3.07,0,5.44,0.96,7.1,2.86c1.31,1.52,2,3.82,2.05,6.89c-8.13,1.42-13.31,2.57-15.54,3.43   c-2.23,0.88-3.95,2.24-5.16,4.08c-1.2,1.84-1.8,3.99-1.8,6.45c0,2.6,0.84,4.67,2.54,6.22c1.69,1.55,4.15,2.32,7.36,2.32   c1.2,0,2.12-0.11,2.8-0.32c0.67-0.21,1.36-0.57,2.07-1.09l7.73-5.86c0.02,1.09,0.04,2.17,0.04,3.23l-0.04,3.29h5.46H245V279h-2.93   c-1.01,0-1.63-0.34-1.87-1.02c-0.26-0.68-0.4-4.31-0.45-10.87c-0.07-6.94-0.26-11.3-0.55-13.06c-0.42-2.34-1.65-4.26-3.72-5.78   c-2.06-1.51-4.78-2.27-8.15-2.27c-1.55,0-2.99,0.21-4.35,0.62s-2.93,1.16-4.73,2.24l-4,2.39l0.04,2.4l-0.04,2.32L216.5,256.5z" id="ptx-8" style="stroke: rgb(0, 0, 0); fill: url('#pat-SmokedOak0');"/>
	<path fill-rule="evenodd" clip-rule="evenodd" d="M268.5,277.63c-1.36,0.42-2.75,0.62-4.15,0.62c-3.59,0-6.53-1.39-8.8-4.2   c-2.53-3.08-3.8-7.18-3.8-12.31c0-3.99,0.86-6.97,2.59-8.98c1.72-2,4.18-3.01,7.39-3.01c1.84,0,3.54,0.3,5.11,0.89   c1.56,0.6,2.56,1.2,3,1.81c0.44,0.6,0.66,1.64,0.66,3.09v1.71h2.25c0.04-3.08,0.28-6.16,0.75-9.26c-1.55-0.74-2.98-1.25-4.3-1.54   c-1.34-0.3-2.92-0.45-4.77-0.45c-2.43,0-4.62,0.46-6.59,1.35c-2.79,1.26-5.11,2.55-6.96,3.86c-1.86,1.32-3.3,3.15-4.33,5.47   c-1.03,2.32-1.55,5.05-1.55,8.18c0,3.56,0.67,6.62,2.02,9.19c1.33,2.58,3.23,4.55,5.69,5.91c2.46,1.35,5.45,2.04,8.99,2.04   c1.79,0,3.55-0.26,5.28-0.75s3.4-1.24,5.04-2.25l1.48-2.34l-0.95-0.88C271.21,276.6,269.86,277.21,268.5,277.63z" id="ptx-9" style="stroke: rgb(0, 0, 0); fill: url('#pat-SmokedOak0');"/>
	<path fill-rule="evenodd" clip-rule="evenodd" d="M285.04,251.36c1.66-2.07,3.86-3.11,6.62-3.11c1.77,0,3.33,0.41,4.69,1.21   c1.36,0.81,2.31,1.81,2.86,3.02c0.86,1.95,1.29,4.01,1.29,6.19v2.07c-1.73,0.18-3.52,0.26-5.36,0.26H282.5   C282.55,256.64,283.39,253.42,285.04,251.36z M291.7,263.25c4.65,0,8.3-0.07,10.92-0.21c1.47-0.08,3.01-0.26,4.63-0.54v-2.14   c0-4.53-1.27-8.06-3.77-10.57c-2.51-2.52-5.92-3.79-10.21-3.79c-2.85,0-5.78,0.84-8.79,2.52c-3.01,1.69-5.07,3.5-6.18,5.47   c-1.71,2.99-2.55,6.53-2.55,10.61c0,5.35,1.52,9.6,4.58,12.71c3.05,3.13,7.07,4.69,12.05,4.69c2.27,0,4.5-0.32,6.66-0.94   c2.15-0.62,4.25-1.56,6.29-2.81l1.17-3.07l-0.63-0.55c-1.69,1.21-3.38,2.11-5.09,2.72c-1.71,0.61-3.43,0.9-5.17,0.9   c-3.86,0-6.98-1.27-9.36-3.81s-3.63-6.27-3.75-11.19H291.7z" id="ptx-10" style="stroke: rgb(0, 0, 0); fill: url('#pat-SmokedOak0');"/>
</g>
</svg>